<svg xmlns="http://www.w3.org/2000/svg" id="be4092ff-324e-44e2-8c33-c21d37bb5428" data-name="Capa 1" width="35" height="50" viewBox="0 0 482.19 396">
    <g fill="#9e050f">
        <path d="M14.38,52H491.09V448H14.38c-4.37-3-5.48-7.22-5.47-12.47Q9.09,250,8.91,64.47C8.9,59.22,10,55,14.38,52ZM26.46,378.75H473.53V121.15H26.46ZM86.26,69.6H26.66v33.76h59.6ZM104,103.27h59.6V69.51H104Zm77.5,0h59.6V69.5h-59.6Zm77.5,0h59.6V69.5H259Zm77.51.07h59.66V69.61H336.46ZM473.72,69.6H414.13v33.77h59.59ZM26.65,396.54v34H86.16v-34Zm137.09.18h-59.6v33.79h59.6Zm17.86-.15v33.78h59.59V396.57Zm137.14.16h-59.6V430.5h59.6Zm77.62,0H336.59v33.66h59.77Zm17.57,33.71h59.6V396.63h-59.6Z" transform="translate(-8.91 -52)"></path>
        <path d="M174.46,250q0-37.12,0-74.25c0-11.12,6-14.59,15.59-9q64.5,37.17,129,74.43c9.22,5.32,9.18,12.47-.12,17.85Q254.66,296.07,190.4,333.1c-10.26,5.91-15.93,2.53-15.93-9.43Q174.44,286.82,174.46,250ZM300,250,192.12,187.72V312.28Z" transform="translate(-8.91 -52)"></path>
    </g>
</svg>
