<svg xmlns="http://www.w3.org/2000/svg" id="b60f1aeb-31d6-493c-ac75-148f53d9acc2" data-name="Capa 1" width="35" height="50" viewBox="0 0 475.57 459.72">
    <g fill="#9e050f">
        <path d="M487.78,437.26v42.6H12.22v-42.6c2.78-4.06,6.63-5.41,11.48-5,4.15.33,8.34.07,12.52.07a76.36,76.36,0,0,0-12.69-4.14c-7.77-2-9.66-5.23-7.58-13q10.46-39.15,21-78.29Q72.72,202.95,108.55,69c2.44-9.12,5.13-10.66,14.3-8.22,11.62,3.09,23.23,6.25,34.84,9.35q14.2,3.8,28.45,7.56c1.39-8.31,3.48-10,11.66-10q31.19,0,62.37,0h5.68c0-12.4.19-24.25-.09-36.08-.11-4.84,1-8.69,5.05-11.48H371.86C378.1,23.78,376.52,30.28,377,36h82.81c10.1,0,12.12,2,12.12,12.16V432.23C478.06,432.28,484.11,431.38,487.78,437.26ZM377,376.46h78.66V107.6H377ZM122.79,77.2,32.6,414.06l61.18,16.48Q139,261.77,184.05,93.6Zm238,6.63H282V384.38h78.73Zm-95.1,63.49H202.83v189.6h62.81ZM186.43,432.06V148.64l-.65-.14q-38,141.58-76,283.56Zm285.28,16.45H28.31v15.23h443.4Zm-16-357.25v-39H377.08v39Zm0,340.83v-39H377.09v39ZM202.66,130.76h62.79V83.82H202.66Zm63,254.33H202.84v47h62.79Zm16.3-317.73h78.64V36.25H281.93Zm0,364.6h78.63V400.85H281.94Zm-16.32-78.58H202.84v15.26h62.78Z" transform="translate(-12.22 -20.14)"></path>
        <path d="M93.42,340.2,78.14,336c16.41-61.23,32.76-122.21,49.23-183.61l15.31,4.05C126.22,217.81,109.87,278.83,93.42,340.2Z" transform="translate(-12.22 -20.14)"></path>
        <path d="M72,359.1l15.26,4.1c-2.73,10.24-5.37,20.15-8.15,30.56l-15.27-4.09Z" transform="translate(-12.22 -20.14)"></path>
        <path d="M148.78,133.36l-15.18-4.07,6.07-22.93L155,110.53Z" transform="translate(-12.22 -20.14)"></path>
        <path d="M345.11,234.14q0,53.75,0,107.5c0,9.09-2.31,11.39-11.4,11.4-8.91,0-17.83,0-26.75,0-6.47,0-9.38-2.93-9.38-9.4q0-109.49,0-218.95c0-6.49,2.9-9.35,9.39-9.4q14.11-.09,28.23,0c7.11,0,9.9,2.78,9.9,9.89Q345.15,179.66,345.11,234.14ZM328.92,337V131.51H313.66V337Z" transform="translate(-12.22 -20.14)"></path>
    </g>
</svg>
