<svg xmlns="http://www.w3.org/2000/svg" id="a469520c-8de2-4245-91af-3cdcb8500bdb" data-name="Capa 1" width="35" height="50" viewBox="0 0 481 481">
    <g fill="#9e050f">
        <path d="M9.5,490.5V9.5h481v481ZM474.3,90H25.93v384.3H474.3ZM25.77,73.24H474.13V25.73H25.77Z" transform="translate(-9.5 -9.5)"></path>
        <path d="M249.53,298.11H69.14c-9.21,0-11.53-2.32-11.53-11.53q0-76.68,0-153.35c0-9.22,2.31-11.53,11.52-11.53H430.92c9.21,0,11.54,2.32,11.54,11.52V286.58c0,9.19-2.34,11.53-11.53,11.53Zm176.67-160H73.88v144c5.36,0,10.51-.22,15.62.07a9.94,9.94,0,0,0,8.3-3.4c13.47-13.69,27.19-27.14,40.64-40.85,3.81-3.87,7.58-4.69,12.58-2.56,9.51,4,19.22,7.62,28.74,11.64,3.05,1.29,5,1,7.38-1.43C200,232.42,213,219.49,226,206.5c5.81-5.8,8.27-6,15.19-1.43q31.26,20.82,62.45,41.72a6.75,6.75,0,0,0,7.27.77c9.83-4.15,19.88-7.77,29.65-12,5.18-2.26,9-1.38,13.19,2.24,16,13.94,32.15,27.67,48.29,41.43,1.35,1.14,3,2.66,4.54,2.73,6.45.31,12.92.13,19.59.13ZM380.44,281.84c-11.91-10.2-22.87-19.7-34-29-1-.84-3.43-.77-4.86-.23-10,3.78-19.94,7.6-29.74,11.82-4.68,2-8.42,1.47-12.58-1.34-20.05-13.56-40.29-26.84-60.33-40.41-2.91-2-4.54-2-7.08.6-12.73,13-25.75,25.74-38.51,38.73-3.77,3.85-7.56,4.79-12.57,2.66-9.67-4.11-19.45-7.94-29.25-11.71-1.49-.57-4.07-1-4.91-.15-9.64,9.34-19,18.93-29,29Z" transform="translate(-9.5 -9.5)"></path>
        <path d="M145.8,378.3h76.66a24.93,24.93,0,0,1,4.5.12c4.32.8,6.93,3.46,6.93,7.89s-2.62,7.08-6.93,7.89a24.09,24.09,0,0,1-4.5.13H69.13a25,25,0,0,1-4.5-.13c-4.3-.81-6.92-3.46-6.92-7.9s2.61-7.08,6.93-7.88a24.93,24.93,0,0,1,4.5-.12Z" transform="translate(-9.5 -9.5)"></path>
        <path d="M354.27,394.34H277.6a25,25,0,0,1-4.5-.13c-4.3-.81-6.92-3.45-6.93-7.89s2.6-7.09,6.92-7.89a25,25,0,0,1,4.5-.12H430.92a25,25,0,0,1,4.5.12c4.32.79,6.92,3.45,6.93,7.88s-2.61,7.08-6.92,7.9a24.09,24.09,0,0,1-4.5.13Z" transform="translate(-9.5 -9.5)"></path>
        <path d="M146.3,426.42h76.17a25,25,0,0,1,4.5.12c4.31.8,6.92,3.47,6.92,7.9s-2.63,7.08-6.93,7.89a25,25,0,0,1-4.5.12H69.13a24.07,24.07,0,0,1-4.5-.13c-4.31-.81-6.92-3.46-6.92-7.9s2.61-7.08,6.93-7.88a25,25,0,0,1,4.5-.12Z" transform="translate(-9.5 -9.5)"></path>
        <path d="M354.27,442.45H277.6a24.09,24.09,0,0,1-4.5-.13c-4.3-.81-6.92-3.45-6.93-7.88s2.6-7.09,6.92-7.9a25,25,0,0,1,4.5-.12H430.92a25,25,0,0,1,4.5.12c4.32.8,6.93,3.46,6.93,7.88s-2.62,7.09-6.92,7.9a24.09,24.09,0,0,1-4.5.13Z" transform="translate(-9.5 -9.5)"></path>
        <path d="M113.68,330.19q23.06,0,46.1,0c6.34,0,10,3,10,8s-3.66,8-9.94,8.06q-46.1,0-92.2,0c-6.34,0-10-3-10-8s3.63-8,9.94-8.05Q90.63,330.16,113.68,330.19Z" transform="translate(-9.5 -9.5)"></path>
        <path d="M442.46,57.5c-2.84,0-5.69.19-8.51,0a7.87,7.87,0,0,1-7.48-7.92,7.74,7.74,0,0,1,7.47-7.91c5.66-.26,11.36-.26,17,0a7.75,7.75,0,0,1,7.49,7.9c0,4.16-3.06,7.44-7.48,8a8.28,8.28,0,0,1-1,0h-7.51Z" transform="translate(-9.5 -9.5)"></path>
        <path d="M49.32,41.54a8,8,0,1,1-7.72,8.12A8.1,8.1,0,0,1,49.32,41.54Z" transform="translate(-9.5 -9.5)"></path>
        <path d="M81.74,41.54a8,8,0,1,1-8.07,7.77A8.07,8.07,0,0,1,81.74,41.54Z" transform="translate(-9.5 -9.5)"></path>
        <path d="M113.5,57.51a8,8,0,1,1,8.21-7.63A8.07,8.07,0,0,1,113.5,57.51Z" transform="translate(-9.5 -9.5)"></path>
        <path d="M306,169.85a24,24,0,1,1-23.9,24.41A24.09,24.09,0,0,1,306,169.85Zm.25,16a8,8,0,1,0,7.87,8A8.05,8.05,0,0,0,306.27,185.88Z" transform="translate(-9.5 -9.5)"></path>
    </g>
</svg>
