<svg xmlns="http://www.w3.org/2000/svg" id="fcfa3798-e816-4d2c-af95-d6618e48eb07" data-name="Capa 1" width="35" height="50" viewBox="0 0 479.06 316.68">
    <path fill="#9e050f" d="M10.47,325.06V278.88a13.22,13.22,0,0,0,.84-2.18q8.29-41.22,47.39-56.64c1.27-.49,2.48-1.15,3.86-1.79-29.17-29.16-24.16-67.38-2.48-89.58,23-23.6,58.32-25.8,84.09-4.9,12.72,10.31,20.53,23.76,22.68,40,2.81,21.31-4.65,39.24-20.09,54.64,13.7,4.44,24.94,11.5,34.15,21.73a3.42,3.42,0,0,0,2.86,1c5.51-1.83,10.94-3.9,16.6-6-39.17-32.76-39.23-84.55-9.58-116.9,29.26-31.92,76.07-35.64,109.29-8.54C317,123.52,327.36,141.24,329.76,163c3.24,29.35-8.13,53.05-30.29,72.25,5.8,2.08,11,4.08,16.34,5.75a4.34,4.34,0,0,0,3.6-1.17,75.24,75.24,0,0,1,31.92-20.7,6,6,0,0,0,1.43-1c-28-27.82-24.79-65.28-3.3-88.38,22.29-24,57.72-27.08,83.6-7.1,12.95,10,21.19,23.15,23.84,39.36,3.6,22-3.89,40.55-19.63,56.37,1.58.7,2.55,1.2,3.58,1.58,19.7,7.16,33.94,20.36,42.46,39.41,2.78,6.2,4.19,13,6.22,19.56v46.18c-1.92,1.62-3.61,3.75-5.81,4.77-8.27,3.84-16.49,8.06-25.15,10.74-11.9,3.69-24.12,6.38-36.32,8.95-5.36,1.13-9.74-2.45-10.69-7.36-1-5.28,1.86-9.73,7.32-11.25a36.79,36.79,0,0,1,3.77-.7,174.24,174.24,0,0,0,44-13.4c2.3-1,4-2,4-5.15-.25-8.65.13-17.32-.24-26-1.1-25.3-21.08-47.62-46.29-50-16.05-1.52-32.32-.85-48.49-.77A68.17,68.17,0,0,0,359,237a48.32,48.32,0,0,0-24.2,14.77c1,.91,1.53,1.48,2.14,2C358.52,271.4,371,294,372.49,322c.88,16.14.58,32.34.59,48.52,0,3.91-2.11,6.95-5.73,8.81-28.36,14.55-58.24,24.18-90,27.57-50.65,5.41-98.53-4-143.84-27.14-4.73-2.41-6.73-6-6.66-11.15.17-12.18.35-24.36.18-36.54-.4-30.87,10.7-56.54,34.16-76.76l4.12-3.57c-8.76-9-18.83-15.26-30.85-16-17.24-1-34.57-.87-51.85-.69a52.87,52.87,0,0,0-52.16,45c-1.27,8-.84,16.29-.94,24.45-.14,10.92-.23,11.51,10.06,14.87,13.19,4.32,26.71,7.69,40.15,11.22,6.2,1.63,9.59,5.54,8.79,11.15-.75,5.32-5.25,8.49-11.27,7.89-1.11-.11-2.22-.3-3.33-.48a185.6,185.6,0,0,1-54.15-17.64C16.44,329.78,13.56,327.22,10.47,325.06ZM250.5,252l0,.54c-10.41,0-20.83-.21-31.24,0-37.46.91-69.45,30.71-72.36,68-1,13.54-.59,27.21-.42,40.81,0,1.71,2.18,4.1,3.94,5A222.28,222.28,0,0,0,219.09,387c45.73,6.11,89.34-1,131-20.64,2.71-1.28,3.74-2.93,3.67-5.92-.25-11-.42-22.1-.38-33.15.12-36.46-27-68.75-63.11-73.58C277.19,252,263.77,252.51,250.5,252Zm-61.69-80c-.06,33,27.86,61.11,60.88,61.26,33.25.16,61.45-27.86,61.5-61.12s-28.13-61.35-61.36-61.27C216.82,111,188.86,139,188.81,172ZM395,215.32c24,0,43.59-19.43,43.6-43.21s-19.81-43.5-43.51-43.45a43.33,43.33,0,0,0-.09,86.66Zm-290.24,0a43.33,43.33,0,1,0-.14-86.66c-23.5.07-43.13,19.7-43.24,43.24C61.28,195.66,80.9,215.3,104.77,215.32Z" transform="translate(-10.47 -91.66)"></path>
</svg>
